<?xml version="1.0" standalone="no"?>
<!DOCTYPE svg PUBLIC "-//W3C//DTD SVG 20010904//EN"
 "http://www.w3.org/TR/2001/REC-SVG-20010904/DTD/svg10.dtd">
<svg version="1.0" xmlns="http://www.w3.org/2000/svg"
 width="512.000000pt" height="512.000000pt" viewBox="0 0 512.000000 512.000000"
 preserveAspectRatio="xMidYMid meet">
<metadata>
Created by potrace 1.16, written by Peter Selinger 2001-2019
</metadata>
<g transform="translate(0.000000,512.000000) scale(0.100000,-0.100000)"
fill="#FFFFFF" stroke="none">
<path d="M2510 5090 c0 -22 -5 -30 -18 -30 -10 0 -51 -16 -92 -36 -73 -34
-102 -62 -1158 -1117 -596 -595 -1098 -1105 -1117 -1133 -19 -28 -42 -77 -52
-108 -16 -50 -21 -56 -45 -56 -27 0 -28 -2 -28 -50 0 -48 1 -50 29 -50 24 0
29 -5 35 -31 3 -17 17 -54 31 -81 80 -160 219 -248 415 -264 l79 -7 3 -816 c3
-800 4 -817 24 -871 41 -106 77 -165 144 -232 69 -69 175 -130 247 -144 28 -5
33 -10 33 -35 l0 -29 440 0 440 0 0 28 c0 20 8 32 30 44 16 9 39 32 50 50 19
32 20 49 20 668 0 433 4 648 11 675 17 60 64 121 117 152 l47 28 366 0 366 0
49 -30 c55 -34 107 -111 118 -172 3 -21 6 -318 6 -661 0 -441 3 -630 11 -645
17 -32 61 -77 76 -77 8 0 13 -12 13 -30 l0 -30 435 0 435 0 0 29 c0 25 4 29
38 35 118 18 289 151 350 271 70 140 66 83 70 981 l3 812 82 7 c144 12 264 68
343 159 39 44 104 169 104 198 0 13 8 18 30 18 29 0 30 1 30 50 0 49 -1 50
-30 50 -22 0 -30 5 -30 18 0 10 -16 51 -36 92 -34 73 -61 101 -1132 1172
-1071 1071 -1099 1098 -1172 1132 -41 20 -82 36 -92 36 -13 0 -18 8 -18 30 0
29 -1 30 -50 30 -49 0 -50 -1 -50 -30z"/>
</g>
</svg>
