<?xml version="1.0" standalone="no"?>
<!DOCTYPE svg PUBLIC "-//W3C//DTD SVG 20010904//EN"
 "http://www.w3.org/TR/2001/REC-SVG-20010904/DTD/svg10.dtd">
<svg version="1.0" xmlns="http://www.w3.org/2000/svg"
 width="512.000000pt" height="512.000000pt" viewBox="0 0 512.000000 512.000000"
 preserveAspectRatio="xMidYMid meet">
<metadata>
Created by potrace 1.16, written by Peter Selinger 2001-2019
</metadata>
<g transform="translate(0.000000,512.000000) scale(0.100000,-0.100000)"
fill="#FFFFFF" stroke="none">
<path d="M990 5092 c0 -26 -4 -29 -60 -40 -250 -52 -484 -260 -571 -508 -51
-146 -49 -77 -49 -1984 0 -1907 -2 -1838 49 -1984 87 -248 321 -456 571 -508
56 -11 60 -14 60 -40 l0 -28 380 0 380 0 0 29 c0 22 6 31 30 41 36 15 87 71
96 105 13 54 -28 120 -97 155 -36 19 -61 20 -386 20 -191 1 -378 5 -415 9
-175 23 -316 152 -348 320 -14 74 -14 3688 0 3762 32 168 173 297 348 320 88
11 2546 11 2634 0 175 -23 316 -152 348 -320 6 -33 10 -306 10 -700 0 -726 -3
-694 75 -758 51 -42 77 -47 123 -24 47 24 77 56 97 103 22 53 23 1237 1 1350
-28 140 -76 247 -161 358 -106 138 -279 247 -446 282 -55 11 -59 14 -59 40 l0
28 -1305 0 -1305 0 0 -28z"/>
<path d="M1222 3853 c-18 -8 -46 -31 -62 -49 -52 -60 -52 -108 0 -168 62 -71
-16 -66 1134 -66 1009 0 1038 1 1075 20 44 22 88 70 97 106 13 53 -28 119 -97
154 -37 19 -65 20 -1076 20 -933 0 -1041 -2 -1071 -17z"/>
<path d="M1222 3053 c-18 -8 -46 -31 -62 -49 -52 -60 -52 -108 0 -168 62 -71
-16 -66 1134 -66 1009 0 1038 1 1075 20 44 22 88 70 97 106 13 53 -28 119 -97
154 -37 19 -65 20 -1076 20 -933 0 -1041 -2 -1071 -17z"/>
<path d="M4151 2335 c-80 -23 -136 -50 -205 -99 -33 -24 -318 -302 -633 -618
l-571 -573 -36 -115 c-132 -429 -216 -716 -216 -735 0 -32 55 -103 95 -122 28
-13 35 -23 35 -45 0 -18 5 -28 15 -28 10 0 15 10 15 28 l0 27 398 109 c218 60
415 118 437 129 27 12 236 215 626 605 582 583 587 588 628 672 23 47 48 118
56 157 14 65 14 81 0 145 -52 256 -275 458 -520 474 -45 2 -89 -1 -124 -11z
m226 -306 c80 -30 122 -108 123 -227 0 -94 -15 -141 -62 -189 -28 -29 -39 -33
-83 -33 l-50 0 -133 133 -132 132 0 56 c0 49 4 58 33 86 17 18 43 36 57 42 34
13 212 14 247 0z m-399 -502 l132 -132 0 -55 0 -55 -367 -366 -368 -366 -190
-52 c-119 -32 -210 -51 -242 -51 l-53 0 0 48 c0 29 22 121 57 240 l58 192 366
365 365 365 55 0 54 0 133 -133z"/>
<path d="M1222 2254 c-39 -20 -90 -76 -98 -109 -3 -14 -3 -37 1 -52 9 -39 87
-111 127 -118 18 -3 317 -5 664 -3 l631 3 37 29 c45 34 76 81 76 116 0 35 -31
82 -76 116 l-37 29 -646 2 c-578 3 -649 1 -679 -13z"/>
</g>
</svg>
